
<?xml version="1.0" standalone="no"?>
<!DOCTYPE svg PUBLIC "-//W3C//DTD SVG 20010904//EN"
 "http://www.w3.org/TR/2001/REC-SVG-20010904/DTD/svg10.dtd">
<svg version="1.0" xmlns="http://www.w3.org/2000/svg"
 width="3336.000000pt" height="2560.000000pt" viewBox="0 0 3336.000000 2560.000000"
 preserveAspectRatio="xMidYMid meet">

<g transform="translate(0.000000,2560.000000) scale(0.100000,-0.100000)"
fill="#000000" stroke="none">
<path d="M0 12800 l0 -12800 16680 0 16680 0 0 12800 0 12800 -16680 0 -16680
0 0 -12800z m17460 9010 c405 -26 793 -85 1243 -186 371 -84 1181 -356 1642
-552 259 -110 640 -303 860 -435 543 -325 660 -402 920 -597 711 -535 1182
-988 1736 -1670 301 -370 561 -758 820 -1221 112 -200 319 -618 394 -794 56
-132 180 -440 205 -510 176 -494 266 -799 355 -1212 101 -468 143 -808 215
-1757 l11 -140 -25 -24 c-17 -18 -42 -28 -83 -33 -80 -12 -995 -32 -1064 -24
-52 6 -57 9 -74 43 -18 39 -40 220 -90 737 -82 846 -232 1475 -533 2231 -220
550 -555 1158 -887 1604 -92 125 -152 202 -337 438 -251 318 -635 709 -968
986 -288 239 -593 466 -830 616 -107 67 -217 137 -245 155 -240 155 -587 338
-955 503 -133 59 -582 217 -745 262 -44 12 -129 37 -190 55 -262 81 -610 157
-925 204 -297 44 -432 58 -740 76 -390 23 -430 28 -451 57 -10 12 -23 47 -30
76 -20 99 -8 96 -338 89 -283 -6 -510 -19 -646 -37 -160 -22 -354 -50 -405
-60 -665 -122 -1156 -266 -1780 -523 -421 -173 -899 -429 -1285 -689 -77 -52
-189 -127 -250 -168 -158 -106 -435 -322 -615 -479 -172 -151 -568 -541 -765
-755 -324 -353 -735 -933 -1023 -1446 -141 -251 -357 -714 -479 -1028 -115
-296 -235 -679 -298 -947 -86 -366 -138 -655 -174 -965 -43 -363 -52 -472 -60
-705 -8 -277 -6 -270 -103 -325 -42 -24 -65 -44 -69 -60 -11 -38 -10 -205 1
-410 41 -749 206 -1577 461 -2318 266 -771 750 -1638 1318 -2361 163 -208 409
-489 524 -598 59 -57 68 -81 60 -154 -3 -29 -1 -49 6 -53 6 -4 11 -15 11 -25
0 -23 45 -69 245 -246 251 -222 341 -295 634 -514 477 -355 822 -572 1246
-784 415 -207 719 -333 1115 -462 806 -261 1476 -383 2330 -425 118 -5 243
-13 278 -16 l62 -6 0 -67 c0 -36 -4 -72 -9 -80 -15 -24 -630 -3 -991 34 -415
43 -969 155 -1456 295 -334 96 -821 275 -1084 398 -220 103 -306 145 -440 217
-745 399 -1426 884 -1955 1395 -49 48 -103 96 -119 108 l-28 22 -45 -26 -44
-26 -33 23 c-39 28 -295 294 -435 454 -226 257 -417 509 -648 856 -707 1062
-1149 2190 -1352 3449 -67 413 -94 675 -111 1060 -6 140 -13 265 -16 276 -3
17 -16 24 -63 33 -80 16 -117 50 -127 117 -19 129 11 732 51 1034 156 1158
486 2190 998 3125 163 299 452 756 657 1040 368 511 866 1040 1478 1567 502
433 1243 915 1897 1234 684 333 1403 572 2140 713 526 100 740 126 1400 166
230 14 315 22 315 29 0 1 5 29 11 62 20 107 -11 98 328 91 163 -4 366 -11 451
-17z m-540 -2161 c353 -21 922 -92 1164 -144 249 -54 286 -64 679 -187 687
-214 980 -352 1642 -768 389 -245 465 -301 790 -579 324 -279 606 -558 828
-821 178 -210 444 -581 584 -815 202 -336 425 -783 556 -1115 281 -713 422
-1395 478 -2310 12 -203 9 -227 -37 -257 -25 -16 -68 -18 -521 -21 -271 -3
-531 -1 -577 3 l-84 7 -16 37 c-17 44 -30 152 -51 436 -39 536 -190 1179 -402
1710 -96 241 -355 729 -511 965 -305 462 -733 924 -1192 1289 -80 63 -165 131
-190 151 -81 65 -224 166 -298 211 -328 198 -475 279 -657 359 -75 33 -158 71
-184 84 -26 14 -72 34 -102 44 -30 11 -115 43 -189 72 -218 84 -293 108 -524
166 -438 111 -737 157 -1191 184 -196 12 -205 16 -231 107 -23 80 -29 83 -149
83 -133 0 -442 -25 -615 -49 -74 -11 -172 -24 -218 -30 -81 -10 -183 -31 -447
-92 -287 -65 -381 -94 -745 -231 -30 -12 -83 -34 -118 -49 -35 -16 -66 -29
-69 -29 -18 0 -518 -260 -613 -319 -63 -39 -139 -86 -168 -104 -398 -242 -875
-635 -1179 -968 -223 -245 -253 -280 -382 -454 -227 -303 -362 -526 -571 -940
-297 -589 -443 -1036 -554 -1695 -47 -282 -62 -407 -71 -615 -8 -163 -23 -274
-41 -302 -10 -16 -31 -25 -74 -34 -33 -6 -65 -18 -71 -26 -28 -33 16 -585 76
-948 106 -637 278 -1173 557 -1730 98 -194 141 -271 270 -479 201 -323 344
-514 657 -875 73 -84 146 -174 162 -199 29 -46 38 -95 19 -107 -5 -3 -10 -20
-10 -38 0 -27 18 -49 133 -163 347 -343 858 -694 1413 -972 277 -138 519 -238
837 -343 553 -183 933 -256 1617 -309 151 -12 294 -23 318 -26 l42 -5 0 -79
c0 -66 -3 -81 -17 -88 -32 -16 -590 35 -928 83 -264 38 -635 122 -875 197
-454 141 -736 252 -1060 414 -543 273 -1063 638 -1486 1046 -56 54 -108 98
-115 98 -8 0 -25 -9 -39 -20 -58 -45 -112 -19 -240 116 -84 89 -269 303 -326
379 -20 28 -79 104 -129 170 -378 498 -670 1017 -885 1575 -67 173 -79 208
-129 360 -164 504 -288 1183 -321 1760 -7 107 -14 198 -16 202 -2 3 -36 21
-76 39 -63 30 -73 38 -92 79 -28 63 -32 208 -11 450 59 694 182 1256 409 1863
100 267 148 378 250 582 337 669 725 1215 1231 1733 480 491 873 799 1455
1139 349 204 600 323 1030 486 336 128 488 175 792 246 423 100 760 148 1346
196 100 8 191 19 201 24 13 8 22 30 30 78 7 38 17 83 22 101 10 30 14 33 38
27 14 -4 91 -11 171 -16z m-60 -2224 c30 -3 125 -9 210 -15 408 -26 847 -128
1323 -309 303 -115 531 -232 904 -462 277 -172 410 -277 662 -524 400 -392
625 -679 875 -1114 364 -632 555 -1277 613 -2063 16 -223 16 -238 0 -256 -37
-41 -74 -44 -545 -49 -508 -6 -657 0 -667 25 -3 9 -19 105 -35 213 -41 271
-95 562 -131 699 -123 475 -330 886 -643 1275 -113 140 -450 473 -586 578
-238 185 -524 354 -746 440 -231 90 -280 108 -395 140 -195 56 -184 53 -544
122 -38 8 -142 19 -230 25 -88 6 -170 13 -182 15 -21 5 -37 38 -62 131 -13 50
-44 67 -109 59 -417 -45 -580 -69 -747 -110 -209 -51 -496 -147 -585 -196 -8
-5 -76 -38 -152 -74 -388 -184 -696 -403 -1014 -720 -210 -210 -306 -325 -440
-526 -80 -121 -274 -463 -274 -484 0 -2 -15 -36 -34 -77 -85 -180 -160 -396
-216 -618 -53 -210 -66 -286 -85 -490 -27 -299 -35 -364 -50 -386 -14 -21 -53
-34 -106 -34 -16 0 -38 -9 -50 -21 -20 -20 -21 -28 -14 -128 14 -216 77 -607
134 -831 141 -553 408 -1061 809 -1543 156 -188 167 -205 157 -260 -13 -77
-10 -94 28 -136 117 -129 396 -350 622 -491 71 -45 204 -119 295 -164 495
-250 837 -342 1583 -426 176 -19 252 -31 258 -41 16 -25 10 -95 -10 -120 -19
-23 -24 -24 -148 -23 -306 3 -794 87 -1153 200 -366 116 -647 254 -1000 492
-246 166 -462 337 -572 453 -21 21 -42 39 -48 39 -6 0 -28 -12 -50 -26 l-40
-27 -32 25 c-40 31 -206 200 -278 283 -163 188 -340 453 -499 749 -85 158
-245 549 -304 746 -76 250 -159 678 -177 910 -24 308 -26 323 -46 337 -10 7
-41 20 -68 28 -65 20 -83 38 -102 101 -14 48 -13 71 1 236 32 374 104 752 201
1059 163 519 431 1016 791 1470 134 169 506 542 673 675 626 498 1283 807
1990 933 275 49 366 62 550 76 317 24 320 25 320 91 0 35 21 96 42 122 8 9 22
12 42 7 17 -3 56 -8 86 -10z"/>
</g>
</svg>
